<svg width="100" height="100" viewBox="0 0 100 100" fill="none" xmlns="http://www.w3.org/2000/svg">
<path d="M45 61.75H55C59.0114 61.75 62.8588 63.3432 65.6953 66.1797C68.5318 69.0162 70.125 72.8636 70.125 76.875V87H29.875V76.875C29.875 72.8636 31.4682 69.0162 34.3047 66.1797C37.1412 63.3432 40.9886 61.75 45 61.75ZM78.125 43C82.1364 43 85.9838 44.5932 88.8203 47.4297C91.6568 50.2662 93.25 54.1136 93.25 58.125V65.125H69.25V43H78.125ZM21.875 43H30.75V65.125H6.75V58.125C6.75 54.1136 8.3432 50.2662 11.1797 47.4297C14.0162 44.5932 17.8636 43 21.875 43ZM50 31.75C53.3566 31.75 56.5757 33.0835 58.9492 35.457C61.3227 37.8305 62.6562 41.0496 62.6562 44.4062C62.6562 47.7629 61.3227 50.982 58.9492 53.3555C56.5757 55.729 53.3566 57.0625 50 57.0625C46.6434 57.0625 43.4243 55.729 41.0508 53.3555C38.6773 50.982 37.3438 47.7629 37.3438 44.4062C37.3438 41.0496 38.6773 37.8305 41.0508 35.457C43.4243 33.0835 46.6434 31.75 50 31.75ZM26.875 13C28.537 13 30.1832 13.3278 31.7188 13.9639C33.2541 14.5999 34.6491 15.5319 35.8242 16.707C36.9993 17.8821 37.9314 19.2772 38.5674 20.8125C39.2034 22.348 39.5312 23.9942 39.5312 25.6562C39.5312 29.0129 38.1977 32.232 35.8242 34.6055C33.4507 36.979 30.2316 38.3125 26.875 38.3125C23.5184 38.3125 20.2993 36.979 17.9258 34.6055C15.5523 32.232 14.2188 29.0129 14.2188 25.6562C14.2188 23.9942 14.5466 22.348 15.1826 20.8125C15.8186 19.2772 16.7507 17.8821 17.9258 16.707C19.1009 15.5319 20.4959 14.5999 22.0312 13.9639C23.5668 13.3278 25.213 13 26.875 13ZM73.75 13C77.1066 13 80.3257 14.3335 82.6992 16.707C85.0727 19.0805 86.4062 22.2996 86.4062 25.6562C86.4062 29.0129 85.0727 32.232 82.6992 34.6055C80.3257 36.979 77.1066 38.3125 73.75 38.3125C70.3934 38.3125 67.1743 36.979 64.8008 34.6055C62.4273 32.232 61.0938 29.0129 61.0938 25.6562C61.0938 22.2996 62.4273 19.0805 64.8008 16.707C67.1743 14.3335 70.3934 13 73.75 13Z" fill="#FED24B" stroke="#363635"/>
</svg>
